<?xml version="1.0" encoding="UTF-8" standalone="no"?>
<!-- Created with Inkscape (http://www.inkscape.org/) -->

<svg
   width="41.830902mm"
   height="66.734818mm"
   viewBox="0 0 41.830902 66.734818"
   version="1.1"
   id="svg1"
   inkscape:version="1.4.2 (ebf0e94, 2025-05-08)"
   sodipodi:docname="logo-icono.svg"
   inkscape:export-filename="logo olyngor-Dosis SOLO Final2.png"
   inkscape:export-xdpi="96"
   inkscape:export-ydpi="96"
   xmlns:inkscape="http://www.inkscape.org/namespaces/inkscape"
   xmlns:sodipodi="http://sodipodi.sourceforge.net/DTD/sodipodi-0.dtd"
   xmlns="http://www.w3.org/2000/svg"
   xmlns:svg="http://www.w3.org/2000/svg">
  <sodipodi:namedview
     id="namedview1"
     pagecolor="#ffffff"
     bordercolor="#000000"
     borderopacity="0.25"
     inkscape:showpageshadow="false"
     inkscape:pageopacity="0.0"
     inkscape:pagecheckerboard="0"
     inkscape:deskcolor="#d1d1d1"
     inkscape:document-units="mm"
     borderlayer="false"
     showborder="false"
     inkscape:zoom="1.7603255"
     inkscape:cx="73.281902"
     inkscape:cy="126.11304"
     inkscape:window-width="1366"
     inkscape:window-height="696"
     inkscape:window-x="0"
     inkscape:window-y="0"
     inkscape:window-maximized="1"
     inkscape:current-layer="layer1" />
  <defs
     id="defs1" />
  <g
     inkscape:label="Capa 1"
     inkscape:groupmode="layer"
     id="layer1"
     transform="translate(-83.568832,-101.00406)">
    <g
       id="g5">
      <rect
         style="font-variation-settings:'wght' 200;opacity:0.99;fill:none;stroke:none;stroke-width:0.274446"
         id="rect1"
         width="41.830902"
         height="66.734818"
         x="83.568832"
         y="101.00406" />
      <g
         id="g1"
         transform="translate(-0.60121479,-15.030365)">
        <g
           id="g4"
           transform="matrix(0.26458333,0,0,0.26458333,57.948498,97.111333)">
          <g
             id="g2">
            <path
               style="fill:#465367"
               d="m 204.55564,193.21693 c -0.34389,-1.28438 -0.63456,-3.91023 -0.64592,-5.83523 -0.0329,-5.5775 -3.78448,-19.74854 -7.0264,-26.54138 -3.50221,-7.33823 -10.77802,-15.79406 -15.81228,-18.37679 l -3.56775,-1.83036 5.23362,-1.12241 c 5.52678,-1.18529 11.06809,-0.45036 17.79421,2.36 4.79272,2.00252 14.80214,11.81131 18.84603,18.46827 4.1951,6.90588 8.16969,18.58868 9.07162,26.66484 l 0.68371,6.12217 -8.86471,0.68467 c -4.87558,0.37658 -10.26469,0.92245 -11.97578,1.21306 -2.63446,0.44744 -3.20687,0.17063 -3.73635,-1.80684 z"
               id="path16" />
            <path
               style="fill:#465367"
               d="m 145.40307,194.79712 c -1.1,-0.17172 -5.85304,-0.5938 -10.56231,-0.93795 l -8.56232,-0.62574 0.79728,-6.62257 c 2.33735,-19.41503 14.39872,-38.48105 28.39797,-44.89012 6.12427,-2.80378 16.28012,-3.64121 19.86031,-1.63763 1.78519,0.99904 1.71485,1.17184 -1.06139,2.60749 -3.44986,1.784 -9.94182,8.60063 -13.13226,13.78903 -3.78569,6.15642 -7.26941,16.79207 -8.77775,26.79809 -0.79626,5.28219 -1.45039,10.16648 -1.45363,10.85398 -0.006,1.20047 -1.17398,1.34167 -5.5059,0.66542 z"
               id="path15" />
            <path
               style="fill:#465367"
               d="m 158.71634,252.51716 c -13.43076,-5.42803 -23.16411,-16.58983 -28.70011,-32.9121 -1.7772,-5.23986 -4.50919,-19.37999 -3.81777,-19.75989 0.65185,-0.35817 23.94206,-2.55935 24.21301,-2.2884 0.18053,0.18053 0.82941,4.15249 1.44194,8.82658 2.23314,17.04048 7.05175,28.94823 15.20114,37.565 8.87004,9.37876 12.827,9.37876 21.69704,0 8.23174,-8.70385 13.29019,-21.27562 15.04017,-37.37933 0.49683,-4.57197 1.11496,-8.5243 1.37361,-8.78296 0.25866,-0.25865 5.70545,0.0605 12.10399,0.70917 l 11.63371,1.17944 v 3.19355 c 0,5.0125 -3.63762,17.96825 -7.05611,25.13105 -4.1146,8.62136 -14.31024,19.43272 -21.78999,23.1059 -4.75267,2.33395 -6.72984,2.73564 -12.4039,2.51999 -3.7125,-0.14109 -7.9875,-0.30018 -9.5,-0.35352 -1.5125,-0.0534 -5.45,0.18125 -8.75,0.52133 -4.6451,0.4787 -7.05835,0.1906 -10.68673,-1.27581 z"
               id="path14" />
          </g>
          <g
             id="g3">
            <path
               id="path26"
               style="fill:#2b3646"
               d="m 155.37704,301.36802 c -18.99304,-9.99092 -33.12324,-31.9627 -39.54226,-61.48631 -2.25764,-10.38377 -3.60012,-34.22558 -2.0536,-36.47105 1.54437,-2.24235 1.91996,-1.21449 3.10547,8.49861 4.28008,35.06752 22.35429,63.22427 46.51642,72.46522 4.51684,1.72749 7.97755,2.28247 14,2.24511 14.29956,-0.0887 24.50287,-5.14677 36.84253,-18.2639 12.52418,-13.31329 21.00208,-33.26003 23.74082,-55.85727 1.79001,-14.76934 3.4395,-12.79672 3.32571,3.97723 -0.25586,37.72108 -17.06356,71.83656 -41.8033,84.85042 -5.78842,3.04488 -5.86617,3.05563 -22.10576,3.05563 -16.19011,0 -16.33445,-0.0197 -22.02603,-3.01369 z m -42.03485,-116.6273 c -1.55777,-12.46795 2.10652,-36.97145 7.74349,-51.78155 8.66647,-22.76958 22.66925,-38.385468 40.59234,-45.268527 9.31786,-3.578373 21.85537,-3.638446 31.24013,-0.14969 29.21109,10.859149 48.92588,48.097147 48.97672,92.508957 0.0159,13.88904 -2.2383,13.99537 -3.91215,0.18454 -5.99864,-49.49447 -39.08401,-82.247238 -72.75221,-72.02082 -25.01853,7.59914 -43.72337,35.68367 -48.37402,72.63156 -0.6602,5.24508 -1.56242,9.53651 -2.00494,9.53651 -0.44251,0 -1.12172,-2.53844 -1.50936,-5.64098 z" />
          </g>
        </g>
      </g>
    </g>
  </g>
</svg>
