<?xml version="1.0" encoding="UTF-8" standalone="no"?>
<!-- Created with Inkscape (http://www.inkscape.org/) -->

<svg
   version="1.1"
   id="svg1"
   width="248.42853"
   height="276.03174"
   viewBox="0 0 248.42853 276.03174"
   sodipodi:docname="logo-completo.svg"
   inkscape:version="1.4.2 (ebf0e94, 2025-05-08)"
   inkscape:export-filename="logo olyngor-Dosis Unidos Final-.png"
   inkscape:export-xdpi="300"
   inkscape:export-ydpi="300"
   xmlns:inkscape="http://www.inkscape.org/namespaces/inkscape"
   xmlns:sodipodi="http://sodipodi.sourceforge.net/DTD/sodipodi-0.dtd"
   xmlns="http://www.w3.org/2000/svg"
   xmlns:svg="http://www.w3.org/2000/svg">
  <defs
     id="defs1">
    <rect
       x="87.13588"
       y="306.02121"
       width="110.13975"
       height="22.306786"
       id="rect32" />
    <rect
       x="56.46405"
       y="333.20761"
       width="118.5048"
       height="55.766964"
       id="rect31" />
    <rect
       x="55.069878"
       y="352.02896"
       width="172.1805"
       height="57.858227"
       id="rect28" />
    <rect
       x="59.949486"
       y="355.5144"
       width="163.11836"
       height="70.405792"
       id="rect27" />
  </defs>
  <sodipodi:namedview
     id="namedview1"
     pagecolor="#ffffff"
     bordercolor="#000000"
     borderopacity="0.25"
     inkscape:showpageshadow="2"
     inkscape:pageopacity="0.0"
     inkscape:pagecheckerboard="0"
     inkscape:deskcolor="#d1d1d1"
     showgrid="false"
     inkscape:zoom="1.0143737"
     inkscape:cx="182.37855"
     inkscape:cy="89.710528"
     inkscape:window-width="1366"
     inkscape:window-height="696"
     inkscape:window-x="0"
     inkscape:window-y="0"
     inkscape:window-maximized="1"
     inkscape:current-layer="g1" />
  <g
     inkscape:groupmode="layer"
     inkscape:label="Image"
     id="g1"
     transform="translate(-51.26347,-73.937561)">
    <g
       id="g5">
      <rect
         style="font-variation-settings:'wght' 400;display:inline;opacity:0.99;fill:none;stroke:none;stroke-width:1.00064"
         id="rect4"
         width="248.42853"
         height="276.03174"
         x="51.26347"
         y="73.937561" />
      <g
         id="g4"
         transform="translate(-1.9607759)">
        <g
           id="g2">
          <path
             style="fill:#465367"
             d="m 204.55564,193.21693 c -0.34389,-1.28438 -0.63456,-3.91023 -0.64592,-5.83523 -0.0329,-5.5775 -3.78448,-19.74854 -7.0264,-26.54138 -3.50221,-7.33823 -10.77802,-15.79406 -15.81228,-18.37679 l -3.56775,-1.83036 5.23362,-1.12241 c 5.52678,-1.18529 11.06809,-0.45036 17.79421,2.36 4.79272,2.00252 14.80214,11.81131 18.84603,18.46827 4.1951,6.90588 8.16969,18.58868 9.07162,26.66484 l 0.68371,6.12217 -8.86471,0.68467 c -4.87558,0.37658 -10.26469,0.92245 -11.97578,1.21306 -2.63446,0.44744 -3.20687,0.17063 -3.73635,-1.80684 z"
             id="path16" />
          <path
             style="fill:#465367"
             d="m 145.40307,194.79712 c -1.1,-0.17172 -5.85304,-0.5938 -10.56231,-0.93795 l -8.56232,-0.62574 0.79728,-6.62257 c 2.33735,-19.41503 14.39872,-38.48105 28.39797,-44.89012 6.12427,-2.80378 16.28012,-3.64121 19.86031,-1.63763 1.78519,0.99904 1.71485,1.17184 -1.06139,2.60749 -3.44986,1.784 -9.94182,8.60063 -13.13226,13.78903 -3.78569,6.15642 -7.26941,16.79207 -8.77775,26.79809 -0.79626,5.28219 -1.45039,10.16648 -1.45363,10.85398 -0.006,1.20047 -1.17398,1.34167 -5.5059,0.66542 z"
             id="path15" />
          <path
             style="fill:#465367"
             d="m 158.71634,252.51716 c -13.43076,-5.42803 -23.16411,-16.58983 -28.70011,-32.9121 -1.7772,-5.23986 -4.50919,-19.37999 -3.81777,-19.75989 0.65185,-0.35817 23.94206,-2.55935 24.21301,-2.2884 0.18053,0.18053 0.82941,4.15249 1.44194,8.82658 2.23314,17.04048 7.05175,28.94823 15.20114,37.565 8.87004,9.37876 12.827,9.37876 21.69704,0 8.23174,-8.70385 13.29019,-21.27562 15.04017,-37.37933 0.49683,-4.57197 1.11496,-8.5243 1.37361,-8.78296 0.25866,-0.25865 5.70545,0.0605 12.10399,0.70917 l 11.63371,1.17944 v 3.19355 c 0,5.0125 -3.63762,17.96825 -7.05611,25.13105 -4.1146,8.62136 -14.31024,19.43272 -21.78999,23.1059 -4.75267,2.33395 -6.72984,2.73564 -12.4039,2.51999 -3.7125,-0.14109 -7.9875,-0.30018 -9.5,-0.35352 -1.5125,-0.0534 -5.45,0.18125 -8.75,0.52133 -4.6451,0.4787 -7.05835,0.1906 -10.68673,-1.27581 z"
             id="path14" />
        </g>
        <g
           id="g3">
          <path
             id="path26"
             style="fill:#2b3646"
             d="m 155.37704,301.36802 c -18.99304,-9.99092 -33.12324,-31.9627 -39.54226,-61.48631 -2.25764,-10.38377 -3.60012,-34.22558 -2.0536,-36.47105 1.54437,-2.24235 1.91996,-1.21449 3.10547,8.49861 4.28008,35.06752 22.35429,63.22427 46.51642,72.46522 4.51684,1.72749 7.97755,2.28247 14,2.24511 14.29956,-0.0887 24.50287,-5.14677 36.84253,-18.2639 12.52418,-13.31329 21.00208,-33.26003 23.74082,-55.85727 1.79001,-14.76934 3.4395,-12.79672 3.32571,3.97723 -0.25586,37.72108 -17.06356,71.83656 -41.8033,84.85042 -5.78842,3.04488 -5.86617,3.05563 -22.10576,3.05563 -16.19011,0 -16.33445,-0.0197 -22.02603,-3.01369 z m -42.03485,-116.6273 c -1.55777,-12.46795 2.10652,-36.97145 7.74349,-51.78155 8.66647,-22.76958 22.66925,-38.385468 40.59234,-45.268527 9.31786,-3.578373 21.85537,-3.638446 31.24013,-0.14969 29.21109,10.859149 48.92588,48.097147 48.97672,92.508957 0.0159,13.88904 -2.2383,13.99537 -3.91215,0.18454 -5.99864,-49.49447 -39.08401,-82.247238 -72.75221,-72.02082 -25.01853,7.59914 -43.72337,35.68367 -48.37402,72.63156 -0.6602,5.24508 -1.56242,9.53651 -2.00494,9.53651 -0.44251,0 -1.12172,-2.53844 -1.50936,-5.64098 z" />
          <path
             id="text33"
             style="font-size:13.6409px;line-height:645.049px;font-family:Dosis;-inkscape-font-specification:'Dosis, @wght=400';font-variation-settings:'wght' 400;white-space:pre;inline-size:107.666;opacity:0.99;fill:#2d3748;stroke:#2d3748;stroke-width:2.34588"
             d="m 76.357452,315.44532 c -1.413897,0 -2.684223,0.19883 -3.810548,0.59766 -1.102361,0.39881 -1.989154,1.04491 -2.660156,1.93749 -0.671001,0.89257 -1.005859,2.07924 -1.005859,3.56054 v 8.80274 c 0,1.48132 0.334858,2.66797 1.005859,3.56054 0.671002,0.89259 1.568987,1.5387 2.695312,1.93751 1.126326,0.39881 2.38546,0.59766 3.775392,0.59766 1.413897,0 2.684223,-0.19885 3.810546,-0.59766 1.126328,-0.39881 2.024313,-1.04492 2.695314,-1.93751 0.671002,-0.89257 1.005857,-2.07922 1.005857,-3.56054 v -8.80274 c 0,-1.4813 -0.334855,-2.66797 -1.005857,-3.56054 -0.671001,-0.89258 -1.568986,-1.53868 -2.695314,-1.93749 -1.126323,-0.39883 -2.396649,-0.59766 -3.810546,-0.59766 z m 28.253908,0 c -0.31154,0 -0.58653,0.058 -0.82617,0.17187 -0.23965,0.11394 -0.36133,0.29414 -0.36133,0.54102 v 19.37109 c 0,0.24684 0.10854,0.4354 0.32422,0.56836 0.23964,0.11402 0.49225,0.17187 0.75586,0.17187 h 11.53711 c 0.28758,0 0.49151,-0.0849 0.61132,-0.25586 0.11982,-0.18991 0.17969,-0.39906 0.17969,-0.62696 0,-0.20889 -0.0599,-0.39937 -0.17969,-0.5703 -0.11982,-0.18991 -0.32375,-0.28516 -0.61132,-0.28516 h -10.24414 v -18.37304 c 0,-0.24694 -0.13093,-0.42714 -0.39454,-0.54102 -0.23964,-0.11388 -0.50344,-0.17187 -0.79101,-0.17187 z m 29.00781,0 c -0.19171,0 -0.39565,0.0373 -0.61133,0.11327 -0.1917,0.057 -0.35816,0.1522 -0.50195,0.28516 -0.1438,0.11396 -0.2168,0.24845 -0.2168,0.4004 0,0.076 0.0132,0.1609 0.0371,0.25586 0.0479,0.076 0.0947,0.1609 0.14258,0.25584 l 7.44141,11.30859 c 0.0479,0.057 0.0723,0.13357 0.0723,0.22853 v 7.23633 c 0,0.24684 0.11973,0.4354 0.35938,0.56836 0.26361,0.11402 0.5386,0.17187 0.82617,0.17187 0.31154,0 0.58848,-0.0578 0.82812,-0.17187 0.23965,-0.13294 0.35938,-0.32148 0.35938,-0.56836 v -7.23633 c 0,-0.095 0.0224,-0.17158 0.0703,-0.22853 l 7.47852,-11.30859 c 0.0479,-0.0949 0.0835,-0.17983 0.10742,-0.25584 0.024,-0.0949 0.0351,-0.17985 0.0351,-0.25586 0,-0.15201 -0.071,-0.28652 -0.21484,-0.4004 -0.11982,-0.13296 -0.27508,-0.22821 -0.4668,-0.28516 -0.19171,-0.076 -0.39565,-0.11327 -0.61132,-0.11327 -0.19171,0 -0.36011,0.0476 -0.50391,0.14257 -0.14378,0.095 -0.28785,0.23782 -0.43164,0.42773 l -6.65039,10.3965 -6.61328,-10.3965 c -0.11982,-0.18991 -0.26389,-0.33277 -0.43164,-0.42773 -0.14379,-0.095 -0.3122,-0.14257 -0.50391,-0.14257 z m 35.3711,0 c -0.31154,0 -0.58653,0.058 -0.82618,0.17187 -0.23964,0.0949 -0.35937,0.27514 -0.35937,0.54102 v 19.37109 c 0,0.24684 0.11973,0.4354 0.35937,0.56836 0.23965,0.11402 0.51464,0.17187 0.82618,0.17187 0.28757,0 0.55137,-0.0578 0.79101,-0.17187 0.26361,-0.13294 0.39648,-0.32148 0.39648,-0.56836 v -15.75391 l 9.99219,15.41212 c 0.16775,0.28486 0.38483,0.54162 0.64844,0.76952 0.28757,0.2089 0.59809,0.3125 0.93359,0.3125 0.28758,0 0.55138,-0.0578 0.79102,-0.17187 0.26361,-0.13294 0.39453,-0.32148 0.39453,-0.56836 v -19.37109 c 0,-0.24694 -0.13092,-0.42714 -0.39453,-0.54102 -0.23964,-0.11388 -0.50344,-0.17187 -0.79102,-0.17187 -0.31153,0 -0.58653,0.058 -0.82617,0.17187 -0.23964,0.11394 -0.35937,0.29414 -0.35937,0.54102 v 15.75196 l -9.70704,-15.12502 c -0.14378,-0.24688 -0.31023,-0.46632 -0.50195,-0.65624 -0.19171,-0.20896 -0.39565,-0.37049 -0.61133,-0.48439 -0.21567,-0.13294 -0.46828,-0.1992 -0.75585,-0.1992 z m 40.94336,0 c -1.38994,0 -2.64712,0.19883 -3.77345,0.59766 -1.10236,0.39881 -1.98916,1.04491 -2.66016,1.93749 -0.671,0.89257 -1.00781,2.07924 -1.00781,3.56054 v 8.80274 c 0,1.48132 0.33681,2.66797 1.00781,3.56054 0.671,0.89259 1.56897,1.5387 2.69531,1.93751 1.12634,0.39881 2.38546,0.59766 3.7754,0.59766 1.41389,0 2.68422,-0.19885 3.81056,-0.59766 1.12631,-0.39881 2.02431,-1.04492 2.69531,-1.93751 0.671,-0.89257 1.00586,-2.07922 1.00586,-3.56054 v -4.24413 c 0,-0.20892 -0.0842,-0.3891 -0.25195,-0.54102 -0.14378,-0.15193 -0.35892,-0.22853 -0.6465,-0.22853 h -6.29102 c -0.28755,0 -0.51386,0.085 -0.68162,0.25586 -0.14372,0.17093 -0.2168,0.36141 -0.2168,0.57032 0,0.2089 0.0731,0.3994 0.2168,0.57031 0.16776,0.15192 0.39407,0.22656 0.68162,0.22656 h 4.78126 v 3.39063 c 0,1.48132 -0.45457,2.58301 -1.36524,3.30468 -0.88667,0.70268 -2.13267,1.05469 -3.73828,1.05469 -1.6056,0 -2.8516,-0.35201 -3.73827,-1.05469 -0.88669,-0.72167 -1.33009,-1.82336 -1.33009,-3.30468 v -8.80274 c 0,-1.4813 0.4434,-2.57272 1.33009,-3.27538 0.88667,-0.72167 2.13267,-1.08203 3.73827,-1.08203 1.05443,0 1.94122,0.14286 2.66016,0.42773 0.71891,0.26587 1.28205,0.6552 1.68946,1.16796 0.40732,0.51275 0.65798,1.12992 0.7539,1.85156 0.0239,0.24696 0.1437,0.42715 0.35936,0.54102 0.23965,0.11403 0.52781,0.16993 0.8633,0.16993 0.35946,0 0.6476,-0.0663 0.86329,-0.19923 0.21566,-0.15192 0.32226,-0.39839 0.32226,-0.74023 0,-0.96854 -0.31051,-1.8238 -0.9336,-2.56444 -0.62307,-0.74067 -1.49867,-1.31853 -2.62501,-1.73634 -1.12631,-0.4368 -2.45651,-0.65624 -3.99022,-0.65624 z m 33.89843,0 c -1.41389,0 -2.68422,0.19883 -3.81055,0.59766 -1.10236,0.39881 -1.98913,1.04491 -2.66016,1.93749 -0.67098,0.89257 -1.00586,2.07924 -1.00586,3.56054 v 8.80274 c 0,1.48132 0.33488,2.66797 1.00586,3.56054 0.67103,0.89259 1.569,1.5387 2.69531,1.93751 1.12634,0.39881 2.38546,0.59766 3.7754,0.59766 1.41392,0 2.68422,-0.19885 3.81056,-0.59766 1.12631,-0.39881 2.02428,-1.04492 2.69531,-1.93751 0.67098,-0.89257 1.00586,-2.07922 1.00586,-3.56054 v -8.80274 c 0,-1.4813 -0.33488,-2.66797 -1.00586,-3.56054 -0.67103,-0.89258 -1.569,-1.53868 -2.69531,-1.93749 -1.12634,-0.39883 -2.39664,-0.59766 -3.81056,-0.59766 z m 27.9668,0 c -0.26357,0.019 -0.48066,0.0956 -0.64844,0.2285 -0.16778,0.13295 -0.25195,0.29448 -0.25195,0.48439 v 19.37109 c 0,0.24684 0.11972,0.4354 0.35936,0.56836 0.23965,0.11402 0.51661,0.17187 0.82814,0.17187 0.28758,0 0.55136,-0.0578 0.79101,-0.17187 0.2636,-0.13294 0.39454,-0.32148 0.39454,-0.56836 v -8.74609 h 4.56444 l 5.53711,8.54687 c 0.1438,0.22789 0.32339,0.45569 0.53906,0.68359 0.21566,0.20889 0.45515,0.3125 0.71875,0.3125 0.21569,0 0.4308,-0.0476 0.64649,-0.14257 0.2157,-0.095 0.38408,-0.21721 0.50391,-0.36914 0.14388,-0.15192 0.21485,-0.3051 0.21485,-0.45705 0,-0.0571 -0.0113,-0.11298 -0.0352,-0.1699 0,-0.076 -0.0356,-0.14228 -0.10744,-0.19923 l -5.53708,-8.43359 c 1.05442,-0.15193 2.00109,-0.42738 2.83982,-0.82617 0.86272,-0.41781 1.5344,-1.00599 2.01369,-1.76564 0.50325,-0.75965 0.75586,-1.7288 0.75586,-2.90624 0,-1.42435 -0.36116,-2.54471 -1.08009,-3.36133 -0.69496,-0.81662 -1.62848,-1.39449 -2.80273,-1.73632 -1.17424,-0.34184 -2.46892,-0.51367 -3.88281,-0.51367 z M 76.357452,317.1836 c 1.605611,0 2.851598,0.35201 3.738281,1.05467 0.910644,0.70268 1.365235,1.80244 1.365235,3.30274 v 8.80274 c 0,1.5003 -0.454591,2.602 -1.365235,3.30468 -0.886683,0.70268 -2.13267,1.05469 -3.738281,1.05469 -1.605613,0 -2.8516,-0.35201 -3.738283,-1.05469 -0.88668,-0.70268 -1.330076,-1.80438 -1.330076,-3.30468 v -8.80274 c 0,-1.5003 0.443396,-2.60006 1.330076,-3.30274 0.886683,-0.70266 2.13267,-1.05467 3.738283,-1.05467 z m 167.474608,0 c 1.6056,0 2.85158,0.35007 3.73827,1.05273 0.91065,0.70266 1.36525,1.80438 1.36525,3.30468 v 8.80274 c 0,1.5003 -0.4546,2.602 -1.36525,3.30468 -0.88669,0.70268 -2.13267,1.05469 -3.73827,1.05469 -1.6056,0 -2.8516,-0.35201 -3.73827,-1.05469 -0.88669,-0.70268 -1.33009,-1.80438 -1.33009,-3.30468 v -8.80274 c 0,-1.5003 0.4434,-2.60202 1.33009,-3.30468 0.88667,-0.70266 2.13267,-1.05273 3.73827,-1.05273 z m 29.43946,0 h 4.88867 c 1.6056,0 2.90025,0.3044 3.88281,0.9121 1.00649,0.60773 1.50977,1.63284 1.50977,3.07617 0,1.42435 -0.50328,2.44947 -1.50977,3.07617 -0.98256,0.60773 -2.27721,0.91212 -3.88281,0.91212 h -4.88867 z" />
        </g>
      </g>
    </g>
  </g>
</svg>
